Coordinates
version=1
nRows=9
nColumns=63
inDegrees=yes

Units are S.I. units (second, meters, Newtons, ...)
If the header above contains a line with 'inDegrees', this indicates whether rotational values are in degrees (yes) or radians (no).

endheader
time	pelvis_tilt	pelvis_list	pelvis_rotation	pelvis_tx	pelvis_ty	pelvis_tz	hip_flexion_r	hip_adduction_r	hip_rotation_r	knee_angle_r	knee_angle_r_beta	ankle_angle_r	subtalar_angle_r	mtp_angle_r	hip_flexion_l	hip_adduction_l	hip_rotation_l	knee_angle_l	knee_angle_l_beta	ankle_angle_l	subtalar_angle_l	mtp_angle_l	L5_S1_Flex_Ext	L5_S1_Lat_Bending	L5_S1_axial_rotation	L4_L5_Flex_Ext	L4_L5_Lat_Bending	L4_L5_axial_rotation	L3_L4_Flex_Ext	L3_L4_Lat_Bending	L3_L4_axial_rotation	L2_L3_Flex_Ext	L2_L3_Lat_Bending	L2_L3_axial_rotation	L1_L2_Flex_Ext	L1_L2_Lat_Bending	L1_L2_axial_rotation	L1_T12_Flex_Ext	L1_T12_Lat_Bending	L1_T12_axial_rotation	Abs_r3	Abs_r2	Abs_r1	Abs_t1	Abs_t2	neck_flexion	neck_bending	neck_rotation	arm_flex_r	arm_add_r	arm_rot_r	elbow_flex_r	pro_sup_r	wrist_flex_r	wrist_dev_r	arm_flex_l	arm_add_l	arm_rot_l	elbow_flex_l	pro_sup_l	wrist_flex_l	wrist_dev_l
1.300000	4.881020	-18.782541	101.191622	0.199089	0.676118	0.946805	23.833306	0.997400	-1.298861	7.160986	0.124983	21.447459	-4.430969	0.000000	23.613202	-2.410356	5.864635	3.408226	0.059485	22.594518	-0.991575	0.000000	-0.131211	0.116198	-1.336653	-0.243671	0.154544	-1.420193	-0.215566	0.282524	-1.420193	-0.149961	0.282524	-1.169571	-0.121842	0.236951	-1.086030	-0.074974	0.179991	-1.002489	-0.937225	1.314458	-7.434060	0.000000	0.000000	27.060476	-0.758232	1.744389	36.310306	3.018878	16.258543	143.452885	89.281683	-7.258128	11.956709	35.962327	-1.351727	15.431965	143.918578	86.141556	-12.372576	0.861982
1.316667	4.921909	-19.007572	100.748877	0.199722	0.675566	0.946740	23.832294	1.185961	-0.718405	6.539868	0.114142	21.196041	-4.363863	0.000000	23.774134	-2.589891	5.807984	3.452762	0.060262	22.529062	-1.373992	0.000000	-0.119091	0.111026	-1.272088	-0.221164	0.147664	-1.351593	-0.195655	0.269948	-1.351593	-0.136109	0.269948	-1.113077	-0.110588	0.226404	-1.033571	-0.068049	0.171979	-0.954066	-0.850656	1.255945	-7.074970	0.000000	0.000000	26.983222	-0.926189	1.444270	36.045734	2.927096	16.434236	143.524154	89.288149	-7.478287	11.478087	35.338459	-1.529958	15.603195	144.111373	85.773010	-12.108935	0.023785
1.333333	4.929311	-19.225943	100.299294	0.200348	0.675083	0.946614	23.849811	1.342324	-0.117168	5.994616	0.104626	20.874563	-4.368257	0.000000	23.918711	-2.738796	5.700231	3.478130	0.060705	22.488487	-1.719143	0.000000	-0.106127	0.103342	-1.209145	-0.197088	0.137445	-1.284717	-0.174356	0.251266	-1.284717	-0.121292	0.251266	-1.058002	-0.098549	0.210735	-0.982431	-0.060641	0.160077	-0.906859	-0.758054	1.169025	-6.724904	0.000000	0.000000	26.878181	-1.206698	1.129232	35.757284	2.860192	16.623363	143.559987	89.297545	-7.594200	10.943397	34.625356	-1.710103	15.745121	144.369147	85.373218	-11.830417	-0.693812
1.350000	4.897944	-19.428938	99.841103	0.200977	0.674685	0.946438	23.873903	1.470302	0.588323	5.523664	0.096406	20.459999	-4.561199	0.000000	24.039575	-2.854277	5.491118	3.487904	0.060875	22.483426	-1.955667	0.000000	-0.094084	0.092461	-1.147197	-0.174724	0.122973	-1.218897	-0.154571	0.224810	-1.218897	-0.107529	0.224810	-1.003797	-0.087367	0.188546	-0.932097	-0.053760	0.143222	-0.860398	-0.672036	1.045937	-6.380365	0.000000	0.000000	26.776009	-1.542449	0.809006	35.452459	2.808026	16.850507	143.576334	89.309107	-7.657687	10.339448	33.856096	-1.882899	15.863437	144.677577	84.999088	-11.596196	-1.252565
1.366667	4.843303	-19.600903	99.432980	0.201512	0.674394	0.946257	23.886119	1.542600	1.105257	5.129395	0.089525	20.059037	-4.571201	0.000000	24.139771	-2.928460	5.291459	3.501285	0.061109	22.496859	-2.148605	0.000000	-0.085291	0.080501	-1.094667	-0.158393	0.107067	-1.163083	-0.140124	0.195731	-1.163083	-0.097479	0.195731	-0.957833	-0.079201	0.164159	-0.889417	-0.048735	0.124697	-0.821000	-0.609222	0.910648	-6.088208	0.000000	0.000000	26.694191	-1.877396	0.517583	35.147705	2.770664	17.041977	143.618731	89.322274	-7.465974	9.871624	33.065732	-2.030793	15.944742	144.980641	84.588776	-11.271716	-1.823502
1.383333	4.779652	-19.767022	99.046793	0.202000	0.674168	0.946048	23.917963	1.593526	1.559728	4.814648	0.084031	19.646144	-4.537889	0.000000	24.221917	-2.983860	5.042136	3.476249	0.060672	22.522798	-2.233728	0.000000	-0.074675	0.068490	-1.047236	-0.138678	0.091092	-1.112689	-0.122683	0.166527	-1.112689	-0.085346	0.166527	-0.916332	-0.069343	0.139665	-0.850880	-0.042669	0.106091	-0.785427	-0.533393	0.774774	-5.824415	0.000000	0.000000	26.645839	-2.168627	0.261022	34.834313	2.749697	17.227734	143.694258	89.336080	-7.087362	9.504785	32.262940	-2.144113	15.988381	145.317768	84.211411	-10.914811	-2.295286
1.400000	4.705437	-19.896353	98.712724	0.202398	0.674038	0.945854	23.930004	1.613647	1.967222	4.563619	0.079650	19.240192	-4.511847	0.000000	24.276579	-3.012270	4.739243	3.453476	0.060275	22.567939	-2.173672	0.000000	-0.067878	0.056876	-1.010769	-0.126056	0.075646	-1.073942	-0.111516	0.138289	-1.073942	-0.077577	0.138289	-0.884423	-0.063031	0.115982	-0.821250	-0.038785	0.088102	-0.758077	-0.484843	0.643398	-5.621594	0.000000	0.000000	26.631581	-2.322765	0.164713	34.541123	2.742637	17.407628	143.808162	89.351065	-6.566792	9.268684	31.510221	-2.232774	15.967812	145.656222	84.115383	-10.519912	-2.805982
1.416667	4.619899	-20.000801	98.441075	0.202727	0.673990	0.945695	23.931013	1.594764	2.237761	4.368864	0.076251	18.877476	-4.361306	0.000000	24.319911	-3.004622	4.441258	3.438431	0.060012	22.597656	-2.055953	0.000000	-0.063116	0.043857	-0.983022	-0.117213	0.058330	-1.044461	-0.103694	0.106634	-1.044461	-0.072135	0.106634	-0.860145	-0.058610	0.089434	-0.798706	-0.036065	0.067935	-0.737267	-0.450833	0.496122	-5.467276	0.000000	0.000000	26.658644	-2.352938	0.130242	34.253386	2.753930	17.562391	143.971935	89.368267	-5.969510	9.135356	30.838616	-2.303281	15.941709	146.007979	84.020979	-10.075004	-3.266493
1.433333	4.529490	-20.073698	98.251815	0.202967	0.674015	0.945592	23.913395	1.537562	2.353842	4.227338	0.073781	18.580526	-4.090518	0.000000	24.349322	-2.960573	4.162670	3.432773	0.059913	22.607554	-1.890827	0.000000	-0.061331	0.030005	-0.967210	-0.113898	0.039907	-1.027660	-0.100761	0.072954	-1.027660	-0.070095	0.072954	-0.846309	-0.056952	0.061186	-0.785858	-0.035045	0.046478	-0.725407	-0.438081	0.339421	-5.379330	0.000000	0.000000	26.722923	-2.252451	0.139049	33.990864	2.780727	17.688513	144.175227	89.387320	-5.322798	9.110026	30.252806	-2.360048	15.922689	146.387532	83.883390	-9.624658	-3.610778
